<svg width="14" height="20" viewBox="0 0 14 20" fill="none" xmlns="http://www.w3.org/2000/svg">
<path d="M1.19968 19.0532L1.20026 19.0535C1.3783 19.1292 1.58754 19.1121 1.74574 19.0051L7 15.4686L12.2545 19.0052L12.2545 19.0052C12.3483 19.0683 12.4601 19.0999 12.5715 19.0999C12.6491 19.0999 12.7269 19.0844 12.7997 19.0534L12.8003 19.0532C12.9778 18.9764 13.1 18.8134 13.1 18.6249V2.5C13.1 1.60534 12.273 0.9 11.2857 0.9H2.7143C1.72701 0.9 0.9 1.60534 0.9 2.5V18.6249C0.9 18.8134 1.02224 18.9765 1.19968 19.0532ZM6.683 14.4946L1.95713 17.6753V2.5C1.95713 2.15389 2.28366 1.85002 2.71426 1.85002H11.2857C11.7163 1.85002 12.0428 2.15389 12.0428 2.5V17.6753L7.317 14.4946L7.31685 14.4945C7.22222 14.4311 7.1105 14.3999 7 14.3999C6.88947 14.3999 6.77778 14.4311 6.68317 14.4945L6.683 14.4946Z" fill="#2F2624" stroke="#2F2624" stroke-width="0.2"/>
</svg>
