<svg width="20" height="19" viewBox="0 0 20 19" fill="none" xmlns="http://www.w3.org/2000/svg">
<g clip-path="url(#clip0)">
<path d="M17.0889 19H18.506L17.5039 17.9834C16.9636 17.4353 16.6262 16.7224 16.5355 15.949C17.9454 15.0103 18.9764 13.7754 19.5283 12.3591C20.0798 10.944 20.1491 9.38613 19.7287 7.85397C19.2243 6.01552 18.0412 4.33985 16.3974 3.13556C14.6111 1.82695 12.3874 1.13522 9.96657 1.13522C6.91702 1.13522 4.34658 2.02406 2.53325 3.70557C0.899668 5.22046 -9.53674e-06 7.26383 -9.53674e-06 9.45934C-9.53674e-06 10.526 0.214088 11.5638 0.636299 12.5441C1.07323 13.5585 1.71302 14.4617 2.53791 15.2285C4.35366 16.9167 6.9225 17.809 9.96661 17.809C11.0967 17.809 12.2759 17.656 13.3287 17.3751C14.3252 18.4122 15.6756 19 17.0889 19ZM9.96657 2.32621C14.8206 2.32621 17.7991 5.2629 18.5977 8.17335C19.3524 10.9237 18.2399 13.5226 15.6219 15.1253L15.3294 15.3044L15.3384 15.6509C15.3562 16.3366 15.5174 16.9972 15.8058 17.5942C15.1034 17.3531 14.4661 16.9161 13.9669 16.3179L13.7188 16.0204L13.3507 16.1321C12.3179 16.4455 11.116 16.618 9.96657 16.618C3.92546 16.618 1.17399 12.9072 1.17399 9.45934C1.17399 7.60235 1.93803 5.87114 3.32539 4.58463C4.91863 3.10718 7.21514 2.32621 9.96657 2.32621Z" fill="#2F2624"/>
</g>
<defs>
<clipPath id="clip0">
<rect width="20" height="19" fill="white" transform="matrix(-1 0 0 1 20 0)"/>
</clipPath>
</defs>
</svg>
