<svg width="21" height="21" viewBox="0 0 21 21" fill="none" xmlns="http://www.w3.org/2000/svg">
<path d="M20.9861 0.701513C20.9852 0.698013 20.9839 0.694512 20.983 0.691012C20.9681 0.62144 20.9428 0.554055 20.9108 0.488858C20.9025 0.472231 20.8942 0.456041 20.885 0.439414C20.8474 0.373342 20.8036 0.309895 20.7472 0.25345C20.6907 0.197004 20.6268 0.153248 20.5608 0.115618C20.545 0.106429 20.5293 0.0985526 20.5126 0.0902389C20.4457 0.0574217 20.377 0.0307304 20.3052 0.0158533C20.303 0.0154158 20.3017 0.0149782 20.3 0.0145406C20.2252 -0.000336491 20.149 -0.0025243 20.0729 0.00228888C20.0563 0.00316401 20.0396 0.00491426 20.023 0.00710207C19.946 0.0162909 19.8694 0.0324807 19.7963 0.0622349L0.544046 7.93836C0.20056 8.07881 -0.0169085 8.42055 0.00103152 8.79073C0.0189716 9.16134 0.268382 9.48033 0.62412 9.58665L8.9238 12.0768L11.4135 20.3765C11.5203 20.7318 11.8393 20.9812 12.2095 20.9992C12.2239 20.9996 12.2379 21 12.2523 21C12.6059 21 12.9271 20.7865 13.0623 20.4561L20.9384 1.2034C20.9384 1.20296 20.9384 1.20296 20.9384 1.20252C20.9677 1.13076 20.9835 1.05594 20.9926 0.980241C20.9948 0.961425 20.997 0.943048 20.9979 0.924233C21.0023 0.849847 21.0005 0.775024 20.9861 0.701513ZM3.49759 8.62095L16.4337 3.32864L9.37755 10.3852L3.49759 8.62095ZM12.3788 17.503L10.615 11.6226L17.6707 4.56694L12.3788 17.503Z" fill="#2F2624"/>
<path d="M20.3052 0.0158533L20.2748 0.16273C20.3303 0.174237 20.3866 0.195525 20.4461 0.224674C20.4631 0.233173 20.4744 0.238894 20.4852 0.245186L20.4852 0.245192L20.4865 0.245959C20.5455 0.279556 20.5972 0.315656 20.6411 0.359514L20.7472 0.25345L20.6411 0.359516C20.6849 0.403349 20.7209 0.454481 20.7542 0.512756C20.7617 0.526407 20.7687 0.540145 20.7764 0.555335C20.8041 0.612077 20.8246 0.667591 20.8363 0.722379L20.8362 0.722397L20.8375 0.727406C20.8384 0.731038 20.8394 0.734443 20.8401 0.736957C20.8503 0.792208 20.8519 0.851381 20.8481 0.915424L20.8481 0.917261C20.8475 0.929829 20.846 0.942719 20.8437 0.96257C20.8355 1.02981 20.8221 1.09044 20.7995 1.14579L20.7884 1.17306V1.1739L12.9234 20.3993C12.9234 20.3993 12.9234 20.3993 12.9234 20.3993C12.8114 20.6731 12.5452 20.85 12.2523 20.85C12.241 20.85 12.2298 20.8497 12.2155 20.8493C11.9094 20.8339 11.6456 20.6274 11.5572 20.3333L9.06748 12.0337L9.04427 11.9564L8.96691 11.9331L0.667227 9.44298L0.667077 9.44294C0.372377 9.35485 0.165724 9.09062 0.150856 8.78347L0.150856 8.78347C0.135993 8.47678 0.316181 8.19359 0.600821 8.0772L0.600842 8.07719L19.8529 0.201159C19.9098 0.177984 19.9724 0.164206 20.0408 0.156046L20.0408 0.156056L20.0426 0.15582C20.0568 0.153954 20.0693 0.152687 20.0808 0.15209L20.0823 0.15199C20.148 0.147838 20.2091 0.149904 20.2665 0.160844C20.269 0.161472 20.2722 0.162209 20.2758 0.16294L20.3052 0.0158533ZM20.3052 0.0158533C20.3038 0.0155612 20.3027 0.015269 20.3016 0.0149769C20.3011 0.0148315 20.3006 0.0146861 20.3 0.0145406L20.5608 0.115618C20.545 0.106429 20.5293 0.0985526 20.5126 0.0902389C20.4457 0.0574217 20.377 0.0307304 20.3052 0.0158533ZM3.44079 8.48212L3.04822 8.64273L3.45448 8.76462L9.33445 10.5289L9.42027 10.5546L9.48362 10.4913L16.5398 3.4347L16.3769 3.18981L3.44079 8.48212ZM12.2351 17.5461L12.357 17.9525L12.5176 17.5598L17.8095 4.62373L17.5646 4.46087L10.5089 11.5166L10.4456 11.5799L10.4713 11.6657L12.2351 17.5461Z" stroke="white" stroke-width="0.3"/>
</svg>
