<svg width="21" height="21" viewBox="0 0 21 21" fill="none" xmlns="http://www.w3.org/2000/svg">
<path d="M20.7434 19.5063L14.7716 13.5345C15.9283 12.1057 16.6248 10.2901 16.6248 8.31259C16.6248 3.72938 12.8956 0.000152588 8.31239 0.000152588C3.72919 0.000152588 0 3.72934 0 8.31254C0 12.8958 3.72923 16.625 8.31243 16.625C10.2899 16.625 12.1055 15.9285 13.5344 14.7717L19.5062 20.7436C19.6768 20.9142 19.9008 21 20.1248 21C20.3488 21 20.5728 20.9142 20.7434 20.7436C21.0856 20.4015 21.0856 19.8484 20.7434 19.5063ZM8.31243 14.875C4.69345 14.875 1.75 11.9315 1.75 8.31254C1.75 4.69357 4.69345 1.75011 8.31243 1.75011C11.9314 1.75011 14.8749 4.69357 14.8749 8.31254C14.8749 11.9315 11.9314 14.875 8.31243 14.875Z" fill="#2F2624"/>
<path d="M14.6939 13.4716L14.6372 13.5416L14.7009 13.6052L20.6727 19.5771L20.7434 19.5063L20.6727 19.5771C20.9758 19.8801 20.9758 20.3698 20.6727 20.6729C20.5216 20.824 20.3233 20.9 20.1248 20.9C19.9263 20.9 19.7281 20.824 19.5769 20.6729L13.6051 14.701L13.5414 14.6374L13.4714 14.694C12.0596 15.837 10.266 16.525 8.31243 16.525C3.78446 16.525 0.1 12.8405 0.1 8.31254C0.1 3.78457 3.78441 0.100153 8.31239 0.100153C12.8404 0.100153 16.5248 3.78461 16.5248 8.31259C16.5248 10.2661 15.8369 12.0597 14.6939 13.4716ZM1.65 8.31254C1.65 11.9868 4.63823 14.975 8.31243 14.975C11.9866 14.975 14.9749 11.9868 14.9749 8.31254C14.9749 4.63834 11.9866 1.65011 8.31243 1.65011C4.63823 1.65011 1.65 4.63834 1.65 8.31254Z" stroke="white" stroke-width="0.2"/>
</svg>
