<svg width="21" height="21" viewBox="0 0 21 21" fill="none" xmlns="http://www.w3.org/2000/svg">
<path d="M17.4727 20.3431H3.52734C2.48702 20.3431 1.64062 19.4967 1.64062 18.4563V8.52974C1.64062 8.16733 1.93442 7.87349 2.29688 7.87349C2.65933 7.87349 2.95312 8.16733 2.95312 8.52974V18.4563C2.95312 18.773 3.2107 19.0306 3.52734 19.0306H17.4727C17.7893 19.0306 18.0469 18.773 18.0469 18.4563V8.52974C18.0469 8.16733 18.3407 7.87349 18.7031 7.87349C19.0656 7.87349 19.3594 8.16733 19.3594 8.52974V18.4563C19.3594 19.4967 18.513 20.3431 17.4727 20.3431Z" fill="url(#paint0_linear)"/>
<path d="M20.3437 10.8264C20.1758 10.8264 20.0079 10.7623 19.8797 10.6342L11.7181 2.47259C11.0464 1.80092 9.95358 1.80092 9.28191 2.47259L1.12029 10.6342C0.864025 10.8905 0.448496 10.8905 0.19223 10.6342C-0.0640767 10.3779 -0.0640767 9.96242 0.19223 9.70615L8.35385 1.54449C9.53723 0.361106 11.4628 0.361106 12.6461 1.54449L20.8077 9.70611C21.0641 9.96242 21.0641 10.3779 20.8077 10.6342C20.6797 10.7623 20.5117 10.8264 20.3437 10.8264Z" fill="url(#paint1_linear)"/>
<path d="M13.125 20.3431H7.875C7.51254 20.3431 7.21875 20.0492 7.21875 19.6868V13.8626C7.21875 12.7318 8.13873 11.8118 9.26953 11.8118H11.7305C12.8613 11.8118 13.7812 12.7318 13.7812 13.8626V19.6868C13.7812 20.0492 13.4875 20.3431 13.125 20.3431ZM8.53125 19.0306H12.4687V13.8626C12.4687 13.4555 12.1375 13.1243 11.7305 13.1243H9.26953C8.86245 13.1243 8.53125 13.4555 8.53125 13.8626V19.0306Z" fill="url(#paint2_linear)"/>
<defs>
<linearGradient id="paint0_linear" x1="10.5" y1="7.87349" x2="10.5" y2="20.3431" gradientUnits="userSpaceOnUse">
<stop stop-color="#913AA8"/>
<stop offset="1" stop-color="#FB9022"/>
</linearGradient>
<linearGradient id="paint1_linear" x1="10.5" y1="0.656952" x2="10.5" y2="10.8264" gradientUnits="userSpaceOnUse">
<stop stop-color="#913AA8"/>
<stop offset="1" stop-color="#FB9022"/>
</linearGradient>
<linearGradient id="paint2_linear" x1="10.5" y1="11.8118" x2="10.5" y2="20.3431" gradientUnits="userSpaceOnUse">
<stop stop-color="#913AA8"/>
<stop offset="1" stop-color="#FB9022"/>
</linearGradient>
</defs>
</svg>
