<svg width="21" height="19" viewBox="0 0 21 19" fill="none" xmlns="http://www.w3.org/2000/svg">
<path d="M10.5 18.8317C10.201 18.8317 9.91278 18.7234 9.68816 18.5266C8.83981 17.7848 8.0219 17.0877 7.30029 16.4728L7.2966 16.4696C5.18094 14.6667 3.35398 13.1097 2.08282 11.5759C0.661856 9.86127 0 8.23555 0 6.45954C0 4.73401 0.591681 3.14209 1.66594 1.97683C2.75301 0.797795 4.24463 0.148436 5.86651 0.148436C7.07871 0.148436 8.18885 0.531675 9.16601 1.28742C9.65916 1.66889 10.1062 2.13577 10.5 2.68034C10.894 2.13577 11.3408 1.66889 11.8341 1.28742C12.8113 0.531675 13.9214 0.148436 15.1336 0.148436C16.7553 0.148436 18.2471 0.797795 19.3342 1.97683C20.4084 3.14209 21 4.73401 21 6.45954C21 8.23555 20.3383 9.86127 18.9173 11.5758C17.6461 13.1097 15.8193 14.6665 13.704 16.4693C12.9811 17.0851 12.1619 17.7834 11.3116 18.5269C11.0872 18.7234 10.7988 18.8317 10.5 18.8317ZM5.86651 1.37858C4.5923 1.37858 3.42175 1.88711 2.5702 2.8106C1.70599 3.74803 1.22999 5.04387 1.22999 6.45954C1.22999 7.95325 1.78514 9.28913 3.02986 10.791C4.23293 12.2427 6.0224 13.7677 8.09432 15.5334L8.09817 15.5366C8.82251 16.154 9.64362 16.8538 10.4982 17.601C11.3579 16.8523 12.1803 16.1514 12.9061 15.5331C14.9779 13.7674 16.7672 12.2427 17.9703 10.791C19.2148 9.28913 19.77 7.95325 19.77 6.45954C19.77 5.04387 19.294 3.74803 18.4298 2.8106C17.5784 1.88711 16.4077 1.37858 15.1336 1.37858C14.2002 1.37858 13.3432 1.6753 12.5865 2.26042C11.9121 2.78208 11.4424 3.44154 11.167 3.90296C11.0253 4.14024 10.776 4.28187 10.5 4.28187C10.2239 4.28187 9.97463 4.14024 9.833 3.90296C9.55774 3.44154 9.08799 2.78208 8.41347 2.26042C7.65677 1.6753 6.79977 1.37858 5.86651 1.37858Z" fill="#2F2624"/>
</svg>
