<svg width="19" height="20" viewBox="0 0 19 20" fill="none" xmlns="http://www.w3.org/2000/svg">
<path d="M2.24569 5.98814C5.36067 2.54571 10.1087 1.99906 13.7546 4.32403L12.7949 5.38465C12.5188 5.68914 12.4364 6.14583 12.5854 6.54399C12.7342 6.93932 13.0841 7.19998 13.4746 7.1991L17.7264 7.19715C18.2573 7.19715 18.6886 6.72001 18.6886 6.13441V1.43675C18.6886 1.0037 18.4549 0.617397 18.0964 0.45351C17.7343 0.289534 17.322 0.380376 17.0471 0.684334L15.6737 2.20279C10.9541 -1.22751 4.53316 -0.651733 0.385597 3.93224C-0.128532 4.50014 -0.128532 5.42024 0.385597 5.98823C0.899327 6.55594 1.73156 6.55594 2.24569 5.98814Z" fill="#2F2624"/>
<path d="M16.7543 13.9557C13.6392 17.398 8.89109 17.9448 5.2454 15.6196L6.20509 14.559C6.48114 14.2545 6.56357 13.7981 6.41465 13.3997C6.26533 13.0044 5.91582 12.744 5.5253 12.7446L1.27351 12.7467C0.742719 12.7467 0.31134 13.2238 0.31134 13.8094V18.507C0.31134 18.9401 0.545014 19.3263 0.903575 19.4903C1.2655 19.6542 1.67797 19.5634 1.9529 19.2594L3.32619 17.741C5.34674 19.2091 7.67859 19.9445 10.0113 19.9445C13.1267 19.9445 16.2417 18.6333 18.6145 16.0116C19.1285 15.4436 19.1285 14.5235 18.6145 13.9557C18.1006 13.3877 17.2684 13.3877 16.7543 13.9557Z" fill="#2F2624"/>
</svg>
